:SAMPLES-PER-SECOND 30
:FULLY-SPECIFIED
:DEGREES
1188
root  27.3398 38.8824 -11.8413 -6.98561 -82.8321 3.61755
RightUpLeg  4.76032 -7.74862 2.08653
RightLeg  12.8077 0.413838 1.70154
RightFoot  -14.243 -0.245447 -5.89662
RightToes  -8.14909e-010 0 -3.6325e-017
Spine  6.98442 3.80591 10.9742
Spine1  7.58147 4.59416 -0.241767
HEad  -17.9048 53.537 -8.84157
LeftShoulder1  0.217044 2.75478 -22.6257
LeftArm  -26.0125 -7.93746 -40.4533
LeftForeArm  48.1109 -44.463 -7.74161
LeftHand  -0.0181596 6.07369 2.11701
RightShoulder  -0.0989054 -3.79725 24.6076
RightArm  6.25321 -2.23218 41.8445
RightForeArm  19.3033 40.8009 8.4166
RightHand  -0.13283 2.99479 -2.06096
LeftUpLeg  -17.9202 -0.347362 1.27742
LeftLeg  7.73923 -4.67204 -0.338627
LeftFoot  -0.548422 0.371826 -3.90106
LeftToes  1.648e-009 -9.21574e-011 2.55256e-011
1189
root  25.9721 38.8125 -11.764 -8.63748 -83.4001 5.52307
RightUpLeg  7.32729 -7.73955 1.68623
RightLeg  11.744 1.06625 1.77024
RightFoot  -15.393 -0.305612 -5.68033
RightToes  -8.14909e-010 0 -3.6325e-017
Spine  6.15325 3.88262 10.0368
Spine1  7.95386 4.57654 -0.50251
HEad  -17.2247 54.2294 -7.92432
LeftShoulder1  0.237204 2.68338 -22.5623
LeftArm  -26.3198 -7.60811 -40.5723
LeftForeArm  48.381 -44.8469 -7.84998
LeftHand  -0.0179142 5.96508 2.34476
RightShoulder  -0.110501 -3.83142 24.9084
RightArm  6.31864 -2.46251 41.7166
RightForeArm  18.7506 40.8484 8.46908
RightHand  -0.219098 2.95761 -3.27754
LeftUpLeg  -16.7798 2.13279 0.0283518
LeftLeg  -0.98483 -2.02118 -0.490835
LeftFoot  -1.12882 0.562903 -6.20354
LeftToes  1.648e-009 -9.21574e-011 2.55256e-011
1190
root  24.5299 38.5954 -11.6359 -9.07144 -83.7042 5.8974
RightUpLeg  9.3462 -8.26764 1.25381
RightLeg  12.8633 1.89979 1.79876
RightFoot  -17.2353 -0.398171 -5.47393
RightToes  -8.14909e-010 0 -3.6325e-017
Spine  5.26303 3.8612 9.16529
Spine1  8.74913 4.36884 -0.19453
HEad  -17.9148 54.3194 -8.26312
LeftShoulder1  0.158548 2.96281 -22.957
LeftArm  -26.4329 -7.99868 -40.5245
LeftForeArm  49.2039 -45.0469 -7.86642
LeftHand  -0.0265331 5.43506 2.153
RightShoulder  -0.123052 -3.87039 25.0182
RightArm  6.10598 -2.73495 41.8793
RightForeArm  18.7492 39.6456 8.09301
RightHand  -0.161439 3.49867 -2.35959
LeftUpLeg  -16.4384 2.104 -0.700535
LeftLeg  -3.16802 3.98664 -1.40483
LeftFoot  -0.772766 0.679278 -7.50523
LeftToes  1.648e-009 -9.21574e-011 2.55256e-011
1191
root  23.1103 38.4246 -11.5142 -13.8569 -83.0709 10.1403
RightUpLeg  11.9827 -9.9565 -0.263797
RightLeg  14.0601 3.41932 2.0185
RightFoot  -18.7503 -0.40458 -4.30723
RightToes  -8.14909e-010 0 -3.6325e-017
Spine  5.24098 3.65256 7.28999
Spine1  9.41924 4.02161 0.373612
HEad  -18.3753 53.9049 -7.91022
LeftShoulder1  0.142805 3.01924 -23.1411
LeftArm  -26.0872 -8.49543 -40.6961
LeftForeArm  49.7971 -45.2318 -7.89189
LeftHand  -0.0247324 5.619 2.01479
RightShoulder  -0.135931 -3.90875 25.2019
RightArm  5.70708 -3.80539 41.7648
RightForeArm  18.4551 37.6618 7.51593
RightHand  -0.150262 3.92927 -2.13462
LeftUpLeg  -17.1452 1.08708 -2.58913
LeftLeg  1.27763 4.25991 -0.99593
LeftFoot  3.67032 -0.0146182 -0.210525
LeftToes  1.648e-009 -9.21574e-011 2.55256e-011
1192
root  21.605 38.2258 -11.3986 -19.5463 -82.8819 14.7451
RightUpLeg  14.2729 -11.4027 -1.96587
RightLeg  17.4252 5.6413 2.17811
RightFoot  -19.954 -0.246897 -1.58573
RightToes  -8.14909e-010 0 -3.6325e-017
Spine  5.78656 3.83132 5.40911
Spine1  9.71277 4.059 0.884329
HEad  -17.9049 53.7334 -6.95937
LeftShoulder1  0.158628 2.96063 -22.8635
LeftArm  -25.3664 -8.67254 -41.2174
LeftForeArm  50.2621 -45.4046 -7.9215
LeftHand  -0.0241676 5.71892 1.91318
RightShoulder  -0.1897 -4.06876 25.7966
RightArm  5.99187 -5.28685 41.39
RightForeArm  17.9176 34.6166 6.713
RightHand  -0.119042 3.35641 -1.82668
LeftUpLeg  -17.7352 0.142848 -4.11025
LeftLeg  7.95463 1.62195 0.14853
LeftFoot  7.75308 -0.858757 4.94534
LeftToes  1.648e-009 -9.21574e-011 2.55256e-011
1193
root  20.1234 38.0248 -11.2685 -29.6935 -83.0325 23.9651
RightUpLeg  13.7284 -10.2922 -3.68353
RightLeg  25.5328 6.67776 3.24433
RightFoot  -19.7826 0.124641 3.63484
RightToes  -8.14909e-010 0 -3.6325e-017
Spine  6.59527 4.2797 2.9029
Spine1  9.33879 4.08676 1.92526
HEad  -17.3141 53.9829 -6.59853
LeftShoulder1  0.128326 3.07168 -23.3613
LeftArm  -24.3963 -8.48753 -40.811
LeftForeArm  50.5978 -45.6264 -7.97509
LeftHand  -0.0224245 5.70385 2.19097
RightShoulder  -0.235889 -4.19979 26.4028
RightArm  7.88391 -5.67731 41.3962
RightForeArm  15.9463 28.9571 5.39505
RightHand  -0.103746 3.78518 -1.57048
LeftUpLeg  -17.8857 0.421253 -5.13687
LeftLeg  14.572 1.78158 0.759617
LeftFoot  7.05574 -0.881907 5.18397
LeftToes  1.648e-009 -9.21574e-011 2.55256e-011
1194
root  18.745 37.9488 -11.106 -44.5066 -83.1022 38.8478
RightUpLeg  9.4486 -8.73373 -6.26506
RightLeg  37.296 7.87826 6.13756
RightFoot  -15.1141 0.2133 11.3374
RightToes  -8.14909e-010 0 -3.6325e-017
Spine  6.47764 4.64933 1.08557
Spine1  9.71578 4.41846 1.08628
HEad  -16.3965 54.4989 -5.43268
LeftShoulder1  0.11787 3.10785 -23.4424
LeftArm  -24.2805 -8.06914 -40.6459
LeftForeArm  51.5656 -45.7432 -7.95738
LeftHand  -0.0239682 5.70545 1.82775
RightShoulder  -0.250002 -4.24174 26.4389
RightArm  9.52985 -6.01915 42.777
RightForeArm  14.3127 22.235 4.13545
RightHand  -0.112154 3.97544 -1.63886
LeftUpLeg  -17.7502 1.24238 -6.59895
LeftLeg  18.8954 2.08666 1.12175
LeftFoot  3.69903 -0.755657 5.54806
LeftToes  1.648e-009 -9.21574e-011 2.55256e-011
1195
root  17.4706 37.9874 -10.9338 -60.5455 -83.3704 54.7476
RightUpLeg  2.91623 -6.0085 -8.13478
RightLeg  50.0686 7.3848 9.03145
RightFoot  -3.48358 -0.916705 14.9287
RightToes  -8.14909e-010 0 -3.6325e-017
Spine  7.25666 4.98099 0.387677
Spine1  9.45545 4.88567 -0.317957
HEad  -15.8091 55.0251 -5.2068
LeftShoulder1  0.125059 3.08383 -23.447
LeftArm  -24.6468 -7.1801 -40.3559
LeftForeArm  52.0372 -46.2158 -8.08771
LeftHand  -0.0158728 6.50288 1.8184
RightShoulder  -0.185894 -4.05257 26.0611
RightArm  9.24244 -6.89443 44.0892
RightForeArm  15.2546 16.6716 3.9001
RightHand  -0.00449734 2.97155 -0.303176
LeftUpLeg  -16.4388 1.75912 -7.5884
LeftLeg  21.2395 3.27979 1.73857
LeftFoot  0.412484 -0.592439 5.72362
LeftToes  1.648e-009 -9.21574e-011 2.55256e-011
1196
root  16.2077 38.0911 -10.8166 -71.3651 -83.0881 65.0714
RightUpLeg  -3.47888 -4.25467 -9.38697
RightLeg  60.0194 6.1346 10.8259
RightFoot  9.6904 -1.95459 10.6217
RightToes  -8.14909e-010 0 -3.6325e-017
Spine  8.01226 5.06382 -0.956032
Spine1  9.58869 4.76637 -0.440848
HEad  -16.5073 55.2141 -6.64705
LeftShoulder1  0.10111 3.16356 -23.4214
LeftArm  -25.2102 -6.66362 -40.045
LeftForeArm  51.7731 -46.169 -8.08775
LeftHand  -0.0143423 6.47329 1.96923
RightShoulder  -0.151265 -3.94514 26.0831
RightArm  8.95005 -7.6432 44.0886
RightForeArm  15.8756 13.3043 4.3713
RightHand  -0.00670095 1.58218 -0.252966
LeftUpLeg  -14.0859 2.4485 -8.34654
LeftLeg  22.1851 3.70749 1.9783
LeftFoot  -2.28915 -0.43904 5.71509
LeftToes  1.648e-009 -9.21574e-011 2.55256e-011
1197
root  14.9553 38.2375 -10.7499 -69.1392 -82.8688 62.7877
RightUpLeg  -8.45711 -4.27274 -9.8255
RightLeg  65.0539 4.61457 10.1838
RightFoot  7.73198 -1.58658 9.7185
RightToes  -8.14909e-010 0 -3.6325e-017
Spine  8.25951 4.70171 -1.87781
Spine1  9.6703 4.04884 0.188361
HEad  -17.2862 56.0237 -7.50531
LeftShoulder1  0.0551899 3.32085 -23.8237
LeftArm  -25.4149 -6.64766 -39.7398
LeftForeArm  51.4342 -45.9543 -8.03536
LeftHand  -0.0104314 6.7594 1.99893
RightShoulder  -0.211541 -4.12615 26.2558
RightArm  8.76102 -9.01615 43.4164
RightForeArm  16.4884 12.2913 4.4646
RightHand  0.00395496 1.52895 -0.104139
LeftUpLeg  -11.9767 2.43895 -8.38326
LeftLeg  22.4834 3.4501 1.87126
LeftFoot  -4.57608 -0.294687 5.43162
LeftToes  1.648e-009 -9.21574e-011 2.55256e-011
1198
root  13.6712 38.4925 -10.6664 -62.6601 -83.2543 56.3502
RightUpLeg  -12.7344 -4.90446 -9.36379
RightLeg  65.3828 4.14078 9.23992
RightFoot  5.79326 -1.15595 7.93723
RightToes  -8.14909e-010 0 -3.6325e-017
Spine  8.28936 4.18997 -1.43815
Spine1  9.56481 3.47684 0.509617
HEad  -17.9879 56.1093 -8.66681
LeftShoulder1  0.0230273 3.4274 -23.8317
LeftArm  -25.2489 -6.60581 -39.7931
LeftForeArm  50.7913 -45.6451 -7.97012
LeftHand  -0.0199848 6.13159 1.79751
RightShoulder  -0.302933 -4.38998 26.9611
RightArm  9.44676 -10.988 41.7528
RightForeArm  15.7903 13.0107 4.40766
RightHand  0.047424 2.80801 0.468012
LeftUpLeg  -9.34971 1.75365 -7.65483
LeftLeg  21.7015 3.53795 1.87886
LeftFoot  -6.38932 -0.175167 4.96672
LeftToes  1.648e-009 -9.21574e-011 2.55256e-011
